<svg height="512pt" viewBox="-60 0 512 512.0327" width="512pt" xmlns="http://www.w3.org/2000/svg"><path d="m298.503906 341.363281s51.199219 17.070313 76.800782-25.597656c25.597656-42.667969-17.066407-59.734375-17.066407-59.734375s8.53125-34.132812 17.066407-93.867188c8.53125-59.730468-59.734376-153.597656-179.199219-153.597656h-.351563c-119.464844 0-187.734375 93.867188-179.199218 153.597656 8.53125 59.734376 17.066406 93.867188 17.066406 93.867188s-42.667969 17.066406-17.066406 59.734375c25.597656 42.667969 76.800781 25.597656 76.800781 25.597656" fill="#ad1457"/><path d="m280.558594 341.363281s46.589844 17.070313 69.886718-25.597656c23.296876-42.667969-15.53125-59.734375-15.53125-59.734375s7.765626-34.132812 15.53125-93.867188c7.765626-59.730468-54.355468-153.597656-163.0625-153.597656h-.324218c-108.707032 0-170.828125 93.867188-163.0625 153.597656 7.765625 59.734376 15.53125 93.867188 15.53125 93.867188s-38.828125 17.066406-15.53125 59.734375c23.292968 42.667969 69.886718 25.597656 69.886718 25.597656" fill="#e91e63"/><g fill="#4527a0"><path d="m178.6875 238.964844c0 9.644531-9.472656 14.933594-17.066406 18.601562-10.582032 5.140625-21.570313 9.394532-32.855469 12.714844-15.527344 4.523438-31.742187 5.378906-44.714844-5.460938-10.160156-8.558593-16.105469-21.105468-16.296875-34.386718 0-19.117188 19.113282-33.539063 28.757813-39.511719 3.242187-2.046875 5.375-3.15625 5.375-3.15625l29.78125 13.3125c9.8125 10.410156 11.691406 12.285156 20.820312 12.285156 1.601563-.03125 3.183594-.320312 4.695313-.851562l9.558594 4.265625c2.265624 1.753906 4.300781 3.792968 6.058593 6.058594 3.75 4.542968 5.832031 10.238281 5.886719 16.128906zm0 0"/><path d="m323.753906 230.433594c-.191406 13.28125-6.136718 25.828125-16.296875 34.386718-12.972656 10.839844-29.1875 9.984376-44.714843 5.460938-11.285157-3.320312-22.273438-7.574219-32.855469-12.714844-7.59375-3.667968-17.066407-8.957031-17.066407-18.601562.054688-5.890625 2.136719-11.585938 5.886719-16.128906 1.753907-2.265626 3.792969-4.304688 6.058594-6.058594l9.558594-4.265625c1.511719.53125 3.09375.820312 4.695312.851562 9.128907 0 11.007813-1.875 20.820313-12.285156l29.78125-13.3125s2.132812 1.109375 5.375 3.15625c9.644531 5.972656 28.757812 20.394531 28.757812 39.511719zm0 0"/><path d="m185.933594 278.21875-14.132813 21.632812c-2.015625 3.375-1.984375 7.59375.078125 10.9375 2.066406 3.347657 5.824219 5.265626 9.742188 4.976563h28.265625c3.925781.292969 7.6875-1.628906 9.753906-4.980469 2.066406-3.351562 2.09375-7.574218.066406-10.953125l-14.132812-21.613281c-2.246094-3.199219-5.910157-5.101562-9.820313-5.101562s-7.574218 1.902343-9.820312 5.101562zm0 0"/></g><path d="m332.210938 341.363281c.84375 18.128907.273437 36.292969-1.707032 54.332031-1.417968 22.949219-7.332031 45.394532-17.410156 66.058594-11.148438 18.929688-29.605469 32.429688-51.027344 37.316406-21.589844 5.90625-44.371094 5.90625-65.960937 0h-.351563c-21.589844 5.90625-44.371094 5.90625-65.960937 0-21.421875-4.886718-39.882813-18.386718-51.03125-37.316406-10.074219-20.664062-15.992188-43.109375-17.40625-66.058594-1.980469-18.039062-2.550781-36.203124-1.707031-54.332031zm0 0" fill="#7f6e5d"/><path d="m323.378906 341.363281c.789063 18.128907.257813 36.285157-1.597656 54.332031-1.300781 22.839844-6.828125 45.238282-16.304688 66.058594-9.992187 18.585938-27.332031 32.125-47.789062 37.316406-20.167969 5.902344-41.605469 5.902344-61.773438 0h-.324218c-20.164063 5.902344-41.601563 5.902344-61.769532 0-20.457031-5.191406-37.796874-18.730468-47.789062-37.316406-9.476562-20.820312-15.003906-43.21875-16.304688-66.058594-1.855468-18.046874-2.386718-36.203124-1.597656-54.332031zm0 0" fill="#ad1457"/><path d="m290.644531 367.050781c-.714843 5.632813-1.058593 11.304688-1.023437 16.980469 0 0 0 2.730469-.425782 7.082031-1.335937 13.664063-7.402343 26.433594-17.152343 36.097657-2.128907 2.128906-5.011719 3.328124-8.023438 3.328124-3.007812 0-5.894531-1.199218-8.019531-3.328124l-9.558594-9.558594c-2.125-2.128906-5.011718-3.328125-8.019531-3.328125-3.011719 0-5.898437 1.199219-8.023437 3.328125l-7.851563 7.851562c-2.089844 2.132813-4.949219 3.332032-7.933594 3.328125-3.8125-.027343-7.363281-1.945312-9.472656-5.121093-2.058594-3.097657-5.515625-4.980469-9.234375-5.03125-3.71875-.050782-7.226562 1.734374-9.367188 4.777343-1.871093 2.859375-4.914062 4.742188-8.3125 5.136719-3.394531.398438-6.789062-.734375-9.265624-3.089844l-7.851563-7.851562c-2.125-2.128906-5.011719-3.328125-8.023437-3.328125-3.007813 0-5.894532 1.199219-8.019532 3.328125l-9.558594 9.558594c-2.125 2.128906-5.011718 3.328124-8.019531 3.328124-3.011719 0-5.898437-1.199218-8.023437-3.328124-9.75-9.664063-15.816406-22.433594-17.152344-36.097657-.425781-4.351562-.425781-7.082031-.425781-7.082031.035156-5.675781-.308594-11.347656-1.023438-16.980469l1.023438-.085937 17.578125-17.578125c2.125-2.128907 5.011718-3.328125 8.023437-3.328125 3.007813 0 5.894531 1.199218 8.019531 3.328125l9.558594 9.558593c2.125 2.128907 5.011719 3.324219 8.019532 3.324219 3.011718 0 5.898437-1.195312 8.023437-3.324219l7.851563-7.851562c2.402343-2.390625 5.753906-3.574219 9.125-3.230469 3.375.347657 6.414062 2.191407 8.28125 5.023438 2.085937 3.144531 5.609374 5.035156 9.386718 5.035156 3.773438 0 7.300782-1.890625 9.386719-5.035156 2.109375-3.175781 5.660156-5.09375 9.472656-5.121094 2.984375-.003906 5.84375 1.195313 7.933594 3.328125l7.851563 7.851562c2.125 2.128907 5.011718 3.324219 8.023437 3.324219 3.007813 0 5.894531-1.195312 8.019531-3.324219l9.558594-9.558593c2.125-2.128907 5.011719-3.328125 8.019531-3.328125 3.011719 0 5.894531 1.199218 8.023438 3.328125l17.578125 17.578125zm0 0" fill="#4527a0"/><path d="m56.472656 194.039062c8.488282-7.691406 20.28125-10.578124 31.359375-7.683593-11.542969 8.039062-28.613281 23.398437-28.613281 44.078125.199219 15.816406 7.265625 30.765625 19.363281 40.957031 8.480469 7.097656 19.25 10.867187 30.300781 10.617187 7.578126-.121093 15.097657-1.3125 22.34375-3.535156 11.726563-3.433594 23.144532-7.851562 34.132813-13.207031 6.5-3.183594 21.859375-10.589844 21.859375-26.300781-.058594-8.183594-3.03125-16.082032-8.386719-22.273438 1.5625-1.957031 2.933594-4.058594 4.097657-6.277344 7.144531-14.613281 5.199218-32.039062-4.992188-44.714843-1.789062-2.472657-4.757812-3.800781-7.789062-3.492188-3.035157.3125-5.671876 2.21875-6.917969 5.003907-1.246094 2.78125-.914063 6.015624.875 8.488281 6.476562 7.453125 7.902343 18.046875 3.625 26.949219-2.761719 6.0625-8.582031 10.160156-15.222657 10.714843-9.207031 0-11.035156-1.925781-21.164062-12.617187-4.753906-5.019532-10.683594-11.28125-19.328125-19.253906-18.738281-18.027344-48.375-18.027344-67.113281 0-3.410156 3.207031-3.601563 8.5625-.425782 12.003906 3.171876 3.441406 8.523438 3.683594 11.996094.542968zm62.480469 18.472657c10.957031 11.578125 16.992187 17.921875 33.554687 17.921875 4.5-.039063 8.9375-1.054688 13.003907-2.980469 2.898437 3.144531 4.550781 7.238281 4.640625 11.511719 0 4.410156-6.195313 7.996094-12.320313 10.957031-10.128906 4.914063-20.648437 8.984375-31.445312 12.167969-16.339844 4.746094-28.058594 3.550781-36.8125-3.78125-8.265625-6.921875-13.117188-17.097656-13.285157-27.875 0-15.132813 17.679688-28.375 26.996094-33.71875 6.675782 6.316406 11.65625 11.53125 15.667969 15.796875zm0 0"/><path d="m212.675781 216.691406c-5.355469 6.191406-8.332031 14.089844-8.386719 22.273438 0 15.710937 15.359376 23.117187 21.808594 26.242187 11.023438 5.382813 22.480469 9.824219 34.253906 13.265625 7.210938 2.214844 14.703126 3.398438 22.246094 3.515625 11.078125.253907 21.875-3.53125 30.371094-10.648437 12.070312-10.1875 19.121094-25.113282 19.320312-40.90625 0-20.6875-17.070312-36.046875-28.621093-44.058594 11.089843-2.949219 22.921875-.058594 31.402343 7.679688 3.488282 3.046874 8.769532 2.757812 11.902344-.65625 3.128906-3.410157 2.96875-8.699219-.367187-11.914063-18.738281-18.027344-48.375-18.027344-67.113281 0-8.644532 7.96875-14.574219 14.234375-19.328126 19.25-10.128906 10.703125-11.957031 12.628906-21.164062 12.628906-6.640625-.554687-12.460938-4.652343-15.222656-10.714843-4.277344-8.902344-2.851563-19.496094 3.625-26.949219 2.761718-3.820313 1.90625-9.15625-1.914063-11.917969-3.820312-2.761719-9.15625-1.902344-11.917969 1.917969-10.191406 12.675781-12.136718 30.101562-4.992187 44.714843 1.164063 2.21875 2.535156 4.320313 4.097656 6.277344zm59.878907-4.179687c4.011718-4.265625 8.984374-9.4375 15.640624-15.734375 6.980469 4.050781 27.023438 17.226562 27.023438 33.65625-.164062 10.761718-5 20.921875-13.242188 27.84375-8.816406 7.355468-20.539062 8.53125-36.785156 3.832031-10.847656-3.195313-21.40625-7.285156-31.574218-12.230469-6.066407-2.917968-12.261719-6.503906-12.261719-10.914062.089843-4.273438 1.742187-8.367188 4.640625-11.511719 4.066406 1.925781 8.503906 2.941406 13.003906 2.980469 16.5625 0 22.597656-6.375 33.554688-17.921875zm0 0"/><path d="m178.796875 273.542969-14.136719 21.621093c-3.742187 5.621094-4.050781 12.855469-.804687 18.773438 3.566406 6.460938 10.390625 10.4375 17.765625 10.359375h28.265625c7.367187.085937 14.1875-3.875 17.765625-10.316406 3.246094-5.917969 2.9375-13.152344-.804688-18.773438l-14.128906-21.621093c-3.808594-5.628907-10.164062-9-16.960938-9-6.796874 0-13.148437 3.371093-16.960937 9zm14.292969 9.335937c.660156-.792968 1.636718-1.25 2.667968-1.25s2.007813.457032 2.667969 1.25l14.140625 21.621094c.3125.390625.339844.9375.074219 1.359375-.597656.925781-1.65625 1.453125-2.753906 1.371094h-28.265625c-1.097656.082031-2.15625-.445313-2.753906-1.371094-.269532-.421875-.238282-.96875.074218-1.359375l14.140625-21.621094zm0 0"/><path d="m1.953125 277.1875c-4.1875 14.6875-1.507813 30.484375 7.289063 42.972656 9.074218 15.527344 24.140624 26.640625 41.660156 30.71875-.402344 15.875.253906 31.753906 1.96875 47.539063 1.527344 23.746093 7.808594 46.945312 18.476562 68.214843 12.398438 20.722657 32.757813 35.449219 56.320313 40.738282 11.867187 3.058594 24.070312 4.621094 36.324219 4.660156 10.785156.039062 21.527343-1.355469 31.941406-4.15625 10.410156 2.800781 21.148437 4.199219 31.929687 4.15625 12.246094-.03125 24.441407-1.589844 36.300781-4.632812 23.566407-5.304688 43.925782-20.046876 56.320313-40.78125 10.664063-21.273438 16.9375-44.46875 18.457031-68.214844 1.726563-15.773438 2.382813-31.644532 1.972656-47.503906 17.519532-4.082032 32.585938-15.191407 41.660157-30.722657 8.796875-12.488281 11.472656-28.28125 7.289062-42.972656-4.085937-10.816406-11.816406-19.867187-21.855469-25.601563 2.859376-12.621093 9.242188-42.996093 15.703126-88.164062 4.324218-30.320312-8.894532-66.636719-35.355469-97.152344-38.761719-43.089844-94.300781-67.257812-152.25-66.253906-.0625 0-.113281 0-.171875 0s-.121094 0-.179688 0c-57.957031-1.03125-113.511718 23.113281-152.292968 66.195312-26.453126 30.511719-39.679688 66.832032-35.355469 97.148438 6.460937 45.167969 12.84375 75.589844 15.703125 88.167969-10.050782 5.742187-17.777344 14.8125-21.855469 25.644531zm320.09375 119.378906c-1.324219 21.449219-6.886719 42.421875-16.367187 61.707032-10.128907 16.675781-26.65625 28.472656-45.722657 32.636718-20.117187 5.398438-41.300781 5.433594-61.4375.09375-.398437-.066406-.800781-.101562-1.203125-.101562-.46875-.085938-.941406-.128906-1.417968-.128906-.453126.003906-.910157.042968-1.355469.121093-.414063.007813-.828125.042969-1.238281.109375-20.136719 5.339844-41.320313 5.308594-61.441407-.09375-19.042969-4.175781-35.550781-15.972656-45.667969-32.636718-9.46875-19.273438-15.027343-40.230469-16.359374-61.664063-1.5625-14.398437-2.207032-28.882813-1.929688-43.367187.855469 0 1.707031.113281 2.5625.113281 6.25-.003907 12.488281-.683594 18.59375-2.03125 2.992188 10.640625 4.4375 21.65625 4.292969 32.707031 0 0 0 3.046875.460937 7.9375 1.550782 15.617188 8.488282 30.210938 19.625 41.273438 7.863282 7.511718 20.242188 7.511718 28.109375 0l9.558594-9.554688c1.097656-1.09375 2.875-1.09375 3.972656 0l7.851563 7.847656c4.019531 4.082032 9.65625 6.15625 15.359375 5.652344 6.128906-.53125 11.703125-3.746094 15.234375-8.78125.523437-.742188 1.378906-1.171875 2.285156-1.15625.90625.019531 1.746094.488281 2.238281 1.25 3.691407 5.535156 9.90625 8.863281 16.5625 8.863281 5.246094.003907 10.277344-2.09375 13.96875-5.828125l7.851563-7.847656c1.097656-1.09375 2.875-1.09375 3.976562 0l9.554688 9.554688c7.765625 7.757812 20.347656 7.757812 28.109375 0 11.136719-11.0625 18.074219-25.65625 19.628906-41.273438.449219-4.890625.449219-7.9375.449219-7.9375-.136719-11.078125 1.328125-22.117188 4.34375-32.777344 6.214844 1.394532 12.5625 2.097656 18.929687 2.101563.851563 0 1.707031-.09375 2.558594-.113281.28125 14.46875-.363281 28.941406-1.9375 43.324218zm-212.207031-25.488281 15.683594-15.675781c.519531-.519532 1.226562-.8125 1.964843-.8125.734375 0 1.441407.292968 1.960938.8125l9.601562 9.601562c7.761719 7.730469 20.3125 7.730469 28.074219 0l7.832031-7.84375c.59375-.589844 1.414063-.882812 2.246094-.800781.828125.078125 1.578125.523437 2.039063 1.21875 3.679687 5.519531 9.878906 8.835937 16.511718 8.835937 6.632813 0 12.832032-3.316406 16.511719-8.835937.457031-.699219 1.207031-1.148437 2.039063-1.226563.832031-.078124 1.652343.21875 2.246093.800782l7.832031 7.839844c7.761719 7.734374 20.3125 7.734374 28.074219 0l9.601563-9.597657c.519531-.523437 1.226562-.816406 1.960937-.816406.738281 0 1.445313.292969 1.964844.816406l15.683594 15.675781c-.351563 4.078126-.582031 8.34375-.582031 12.960938 0 .195312 0 2.5625-.375 6.332031-1.175782 11.671875-6.371094 22.570313-14.703126 30.832031-.4375.671876-1.183593 1.078126-1.988281 1.078126-.800781 0-1.550781-.40625-1.988281-1.078126l-9.554688-9.558593c-7.769531-7.75-20.34375-7.75-28.109374 0l-7.851563 7.851562c-.550781.667969-1.402344 1.015625-2.261719.917969-.863281-.097656-1.617187-.621094-2.003906-1.394531-3.613281-5.4375-9.667969-8.746094-16.191406-8.84375-6.527344-.101563-12.679688 3.015625-16.457032 8.339843-.617187.933594-1.605468 1.554688-2.714843 1.707032-.707031.050781-1.402344-.210938-1.894531-.71875l-7.851563-7.851563c-7.765625-7.746093-20.339844-7.746093-28.109375 0l-9.554688 9.558594c-.4375.671875-1.1875 1.078125-1.988281 1.078125-.804687 0-1.550781-.40625-1.988281-1.078125-8.332031-8.261719-13.527344-19.160156-14.703125-30.832031-.375-3.777344-.375-6.160156-.375-6.339844 0-4.609375-.230469-8.875-.582031-12.953125zm-91.75-88.335937c3.613281-8.414063 10.300781-15.128907 18.695312-18.773438 3.96875-1.582031 6.15625-5.851562 5.121094-9.992188-.085938-.34375-8.535156-34.492187-16.894531-93.015624-3.59375-25.09375 8.429687-57.113282 31.351562-83.550782 35.542969-39.332031 86.386719-61.332031 139.390625-60.3125h.179688.171875c53.003906-1.023437 103.851562 20.972656 139.398437 60.304688 22.921875 26.453125 34.945313 58.453125 31.351563 83.550781-8.363281 58.523437-16.808594 92.671875-16.894531 93.011719-1.03125 4.125 1.128906 8.378906 5.066406 9.976562 8.425781 3.632813 15.144531 10.347656 18.773437 18.773438 2.382813 9.929687.269531 20.402344-5.777343 28.628906-12.445313 19.675781-36.039063 29.246094-58.675782 23.800781.984375-1.71875 2.128906-3.335937 3.414063-4.839843 3.234375-3.347657 3.1875-8.667969-.101563-11.960938-3.292968-3.292969-8.613281-3.335938-11.964844-.105469-7.773437 9.238281-13.128906 20.257813-15.589843 32.078125l-7.003907-7.015625c-7.761718-7.730469-20.3125-7.730469-28.074218 0l-9.644532 9.628907c-.433593.660156-1.171874 1.058593-1.960937 1.058593-.792969 0-1.53125-.398437-1.964844-1.058593l-7.839843-7.835938c-4.207032-4.203125-10.074219-6.304688-15.992188-5.71875s-11.257812 3.792969-14.558594 8.738281c-.511718.777344-1.382812 1.246094-2.3125 1.246094-.929687 0-1.800781-.46875-2.3125-1.246094-3.300781-4.941406-8.644531-8.144531-14.5625-8.726562-5.917968-.585938-11.78125 1.511719-15.988281 5.714843l-7.839844 7.835938c-.433593.660156-1.171875 1.058594-1.964843 1.058594-.789063 0-1.527344-.398438-1.960938-1.058594l-9.601562-9.609375c-7.761719-7.730469-20.3125-7.730469-28.074219 0l-7.003907 7.015625c-2.460937-11.820312-7.816406-22.84375-15.589843-32.078125-3.304688-3.289063-8.644531-3.289063-11.949219 0-3.355469 3.273437-3.4375 8.644531-.1875 12.023437 1.328125 1.535157 2.5 3.199219 3.5 4.964844-22.554688 5.316406-45.996094-4.28125-58.34375-23.890625-6.046875-8.226562-8.164062-18.695312-5.785156-28.621093zm0 0"/><path d="m70.40625 127.605469c15.007812-3.917969 30.972656-1.175781 43.8125 7.527343 3.921875 2.613282 9.21875 1.554688 11.835938-2.363281 2.613281-3.921875 1.554687-9.222656-2.363282-11.835937-17.222656-11.578125-38.636718-15.054688-58.632812-9.523438-4.476563 1.476563-6.910156 6.304688-5.433594 10.78125 1.476562 4.476563 6.304688 6.910156 10.78125 5.429688zm0 0"/><path d="m272.554688 136.566406c1.683593-.003906 3.328124-.5 4.726562-1.433594 12.835938-8.703124 28.796875-11.445312 43.800781-7.527343 2.898438.957031 6.085938.296875 8.359375-1.734375 2.277344-2.027344 3.300782-5.117188 2.679688-8.105469-.617188-2.988281-2.78125-5.417969-5.679688-6.375-19.996094-5.535156-41.414062-2.054687-58.632812 9.523437-3.144532 2.082032-4.550782 5.984376-3.457032 9.59375 1.09375 3.609376 4.429688 6.074219 8.203126 6.058594zm0 0"/></svg>