<?xml version="1.0" encoding="utf-8"?><svg xmlns="http://www.w3.org/2000/svg"><symbol viewBox="0 0 24 24" id="home-alt"><path d="M3 10.182V22h18V10.182L12 2z"/><rect width="6" height="8" x="9" y="14"/></symbol><symbol viewBox="0 0 24 24" id="credit-card"><rect width="20" height="14" x="2" y="5" rx="2"/><path d="M2,14 L22,14"/></symbol><symbol viewBox="0 0 24 24" id="people"><path d="M1 18C1 15.75 4 15.75 5.5 14.25 6.25 13.5 4 13.5 4 9.75 4 7.25025 4.99975 6 7 6 9.00025 6 10 7.25025 10 9.75 10 13.5 7.75 13.5 8.5 14.25 10 15.75 13 15.75 13 18M12.7918114 15.7266684C13.2840551 15.548266 13.6874862 15.3832994 14.0021045 15.2317685 14.552776 14.9665463 15.0840574 14.6659426 15.5 14.25 16.25 13.5 14 13.5 14 9.75 14 7.25025 14.99975 6 17 6 19.00025 6 20 7.25025 20 9.75 20 13.5 17.75 13.5 18.5 14.25 20 15.75 23 15.75 23 18"/><path stroke-linecap="round" d="M12,16 C12.3662741,15.8763472 12.6302112,15.7852366 12.7918114,15.7266684"/></symbol><symbol viewBox="0 0 24 24" id="user"><path stroke-linecap="round" d="M5.5,19.5 C7.83333333,18.5 9.33333333,17.6666667 10,17 C11,16 8,16 8,11 C8,7.66666667 9.33333333,6 12,6 C14.6666667,6 16,7.66666667 16,11 C16,16 13,16 14,17 C14.6666667,17.6666667 16.1666667,18.5 18.5,19.5"/><circle cx="12" cy="12" r="10"/></symbol><symbol viewBox="0 0 24 24" id="exit"><path d="M18 15l3-3-3-3"/><path d="M11.5 12H20"/><path stroke-linecap="round" d="M21 12h-1"/><path d="M15 4v16H4V4z"/></symbol><symbol viewBox="0 0 24 24" id="restaurant"><path d="M8 4L8 20M18 12C16 11.3333333 15 10 15 8 15 6 16 4.66666667 18 4L18 20 18 12zM5 4L5 7C5 8.65685425 6.34314575 10 8 10L8 10C9.65685425 10 11 8.65685425 11 7L11 4"/></symbol></svg>